HIERARCHY
ROOT Hips
{
	OFFSET 0.00000 0.00000 0.00000
	CHANNELS 6 Xposition Yposition Zposition Zrotation Yrotation Xrotation 
	JOINT LHipJoint
	{
		OFFSET 0 0 0
		CHANNELS 3 Zrotation Yrotation Xrotation
		JOINT LeftUpLeg
		{
			OFFSET 1.53139 -1.83434 0.76626
			CHANNELS 3 Zrotation Yrotation Xrotation
			JOINT LeftLeg
			{
				OFFSET 2.56112 -7.03663 0.00000
				CHANNELS 3 Zrotation Yrotation Xrotation
				JOINT LeftFoot
				{
					OFFSET 2.59983 -7.14299 0.00000
					CHANNELS 3 Zrotation Yrotation Xrotation
					JOINT LeftToeBase
					{
						OFFSET 0.13742 -0.37757 2.00054
						CHANNELS 3 Zrotation Yrotation Xrotation
						End Site
						{
							OFFSET 0.00000 -0.00000 1.02897
						}
					}
				}
			}
		}
	}
	JOINT RHipJoint
	{
		OFFSET 0 0 0
		CHANNELS 3 Zrotation Yrotation Xrotation
		JOINT RightUpLeg
		{
			OFFSET -1.40122 -1.83435 0.76627
			CHANNELS 3 Zrotation Yrotation Xrotation
			JOINT RightLeg
			{
				OFFSET -2.54052 -6.98003 0.00000
				CHANNELS 3 Zrotation Yrotation Xrotation
				JOINT RightFoot
				{
					OFFSET -2.63179 -7.23079 0.00000
					CHANNELS 3 Zrotation Yrotation Xrotation
					JOINT RightToeBase
					{
						OFFSET -0.24131 -0.66299 2.03908
						CHANNELS 3 Zrotation Yrotation Xrotation
						End Site
						{
							OFFSET -0.00000 -0.00000 1.07391
						}
					}
				}
			}
		}
	}
	JOINT LowerBack
	{
		OFFSET 0 0 0
		CHANNELS 3 Zrotation Yrotation Xrotation
		JOINT Spine
		{
			OFFSET 0.01174 2.10302 -0.29778
			CHANNELS 3 Zrotation Yrotation Xrotation
			JOINT Spine1
			{
				OFFSET 0.00772 2.13227 -0.01247
				CHANNELS 3 Zrotation Yrotation Xrotation
				JOINT Neck
				{
					OFFSET 0 0 0
					CHANNELS 3 Zrotation Yrotation Xrotation
					JOINT Neck1
					{
						OFFSET -0.09219 1.60848 0.31481
						CHANNELS 3 Zrotation Yrotation Xrotation
						JOINT Head
						{
							OFFSET 0.13974 1.65456 -0.31134
							CHANNELS 3 Zrotation Yrotation Xrotation
							End Site
							{
								OFFSET 0.04742 1.69515 -0.14578
							}
						}
					}
				}
				JOINT LeftShoulder
				{
					OFFSET 0 0 0
					CHANNELS 3 Zrotation Yrotation Xrotation
					JOINT LeftArm
					{
						OFFSET 3.24909 1.02882 -0.23993
						CHANNELS 3 Zrotation Yrotation Xrotation
						JOINT LeftForeArm
						{
							OFFSET 5.32955 -0.00000 -0.00000
							CHANNELS 3 Zrotation Yrotation Xrotation
							JOINT LeftHand
							{
								OFFSET 3.69232 -0.00000 -0.00000
								CHANNELS 3 Zrotation Yrotation Xrotation
								JOINT LeftFingerBase
								{
									OFFSET 0 0 0
									CHANNELS 3 Zrotation Yrotation Xrotation
									JOINT LeftHandIndex1
									{
										OFFSET 0.53660 -0.00000 -0.00000
										CHANNELS 3 Zrotation Yrotation Xrotation
										End Site
										{
											OFFSET 0.43262 -0.00000 -0.00000
										}
									}
								}
								JOINT LThumb
								{
									OFFSET 0 0 0
									CHANNELS 3 Zrotation Yrotation Xrotation
									End Site
									{
										OFFSET 0.43922 -0.00000 0.43922
									}
								}
							}
						}
					}
				}
				JOINT RightShoulder
				{
					OFFSET 0 0 0
					CHANNELS 3 Zrotation Yrotation Xrotation
					JOINT RightArm
					{
						OFFSET -3.21387 0.93002 -0.34594
						CHANNELS 3 Zrotation Yrotation Xrotation
						JOINT RightForeArm
						{
							OFFSET -5.23431 -0.00000 0.00000
							CHANNELS 3 Zrotation Yrotation Xrotation
							JOINT RightHand
							{
								OFFSET -3.55301 -0.00000 -0.00000
								CHANNELS 3 Zrotation Yrotation Xrotation
								JOINT RightFingerBase
								{
									OFFSET 0 0 0
									CHANNELS 3 Zrotation Yrotation Xrotation
									JOINT RightHandIndex1
									{
										OFFSET -0.77252 -0.00000 -0.00000
										CHANNELS 3 Zrotation Yrotation Xrotation
										End Site
										{
											OFFSET -0.62283 -0.00000 -0.00000
										}
									}
								}
								JOINT RThumb
								{
									OFFSET 0 0 0
									CHANNELS 3 Zrotation Yrotation Xrotation
									End Site
									{
										OFFSET -0.63234 -0.00000 0.63234
									}
								}
							}
						}
					}
				}
			}
		}
	}
}
MOTION
Frames: 12
Frame Time: 0.0909091
0.00 0.00 0.00 0 0 0 0 0 0 -21 0 0 0 0 0 0 0 0 0 0 0 0 0 0 21 0 0 0 0 0 0 0 0 0 0 0 0 0 0 0 0 0 0 0 0 0 0 -16 0 0 21 0 0 11 0 0 0 -8 0 0 0 0 0 0 0 0 0 0 0 0 0 0 0 0 0 0 0 0 8 0 0 0 0 0 0 0 0 0 0 0 0 0 0 0 0 0
0.00 0.00 0.00 0.2012 -12.3213 0.6721 0.0000 0.0000 0.0000 -19.6204 -5.7560 -11.4579 3.6124 11.6259 34.4212 0.3743 -3.7729 -10.8800 0.2630 -3.2990 -9.1124 0.0000 0.0000 0.0000 25.0838 3.3636 -5.1281 -2.2671 -9.4015 27.0596 -1.0883 1.9501 -19.1644 -0.2166 -2.9964 8.2686 0.2822 -0.8390 8.5442 0.7773 -1.0403 -1.6082 0.8003 -0.5059 -6.4738 -15.6156 -9.7769 -15.7137 9.3747 -12.6557 27.6751 4.0913 -6.1224 13.6511 -0.0000 -0.0000 0.0000 -88.1129 5.3653 13.3653 16.6637 -26.4123 -3.9366 -0.0000 -0.0000 7.2189 20.2309 20.6619 7.4092 -7.1250 0.0000 -0.0000 -8.4718 51.6808 -1.4022 -0.0000 -0.0000 0.0000 89.0512 -3.6956 19.7095 -14.8105 23.8814 -3.1488 0.0000 0.0000 7.2947 -16.4090 9.7381 -2.8516 7.1250 -0.0000 -0.0000 7.5323 -19.8801 4.5613
0.00 0.00 0.00 -0.4851 -10.2350 1.6789 0.0000 0.0000 0.0000 -16.5428 -9.8421 -23.9052 0.9721 6.2770 17.5902 0.1051 -3.7518 -5.9479 0.5283 -4.6578 -12.9352 0.0000 0.0000 0.0000 26.7420 -0.5390 4.9057 -0.6925 -5.3198 14.8229 -0.8608 -0.5318 -17.7339 -0.0593 -1.5708 4.3209 2.5936 0.3395 10.4572 1.0122 0.8421 -0.6292 -0.5318 0.3407 -6.5167 -14.1800 -8.0300 -16.2825 7.6725 -10.2856 33.4209 3.7611 -5.1884 15.7656 0.0000 -0.0000 0.0000 -89.3052 7.4317 7.2584 14.1678 -22.9741 -2.8933 -0.0000 -0.0000 12.6598 15.0471 25.1326 6.5136 -7.1250 0.0000 -0.0000 -15.5835 55.2054 -3.9755 0.0000 -0.0000 0.0000 88.6353 -6.2130 17.0238 -13.5386 22.0712 -2.6522 0.0000 0.0000 9.3303 -15.1078 7.8772 -2.1189 7.1250 -0.0000 -0.0000 8.5111 -21.8564 4.7826
0.00 0.00 0.00 2.3076 -15.9624 -0.0849 0.0000 0.0000 0.0000 -20.2663 -5.5029 -14.8892 0.5744 4.8535 13.4912 -0.1581 -7.0410 2.9801 0.1777 -2.7155 -7.4878 0.0000 0.0000 0.0000 21.8799 0.3296 9.4634 -2.3549 -9.5691 27.5923 -0.3246 -2.1966 -11.7957 -0.1119 2.1567 -5.9388 -0.3325 1.1361 10.1793 -0.2702 1.4530 0.3378 -0.3071 0.7189 -5.3599 -14.0326 -8.0031 -15.8498 8.8427 -10.8463 33.3886 4.1445 -5.2829 15.8107 0.0000 -0.0000 0.0000 -89.0151 7.1523 4.7911 12.8195 -21.0222 -2.3881 -0.0000 -0.0000 13.8275 16.9004 25.6683 7.4975 -7.1250 0.0000 -0.0000 -13.9751 56.0993 -3.8581 0.0000 -0.0000 0.0000 88.7454 -4.2571 17.4271 -16.5767 26.2964 -3.8980 0.0000 0.0000 5.7603 -15.4320 9.1268 -2.5072 7.1250 -0.0000 -0.0000 8.2412 -20.5620 4.8716
0.00 0.00 0.00 3.9846 -17.5087 -1.3385 0.0000 0.0000 0.0000 -22.9829 -1.8118 -9.5210 0.2155 2.9885 8.2466 -0.1613 -7.1287 3.2647 0.2405 -3.1562 -8.7140 0.0000 0.0000 0.0000 18.6062 0.8216 1.5294 -5.5697 -13.9980 43.2293 0.0381 -4.3185 1.1764 -0.3592 -3.8500 10.6550 -2.4523 1.1993 10.8013 -0.6456 1.2535 0.8065 0.5170 0.6630 -5.2549 -13.8409 -7.8814 -15.6956 9.1426 -10.7878 32.5873 4.2306 -5.1968 15.3828 0.0000 -0.0000 0.0000 -88.1674 6.1200 9.9149 13.9731 -22.6962 -2.8177 -0.0000 -0.0000 11.4442 16.7988 25.9394 7.5227 -7.1250 0.0000 -0.0000 -14.2239 56.3451 -4.0141 0.0000 -0.0000 0.0000 88.0298 -3.9910 21.0673 -18.7117 29.0589 -4.8900 0.0000 0.0000 3.0731 -16.3393 8.0847 -2.3609 7.1250 -0.0000 -0.0000 7.6137 -21.5881 4.3157
0.00 0.00 0.00 6.3183 -19.8251 -3.2424 0.0000 0.0000 0.0000 -26.4172 1.2932 -1.1414 0.0000 -0.0000 -0.0000 -0.0487 -4.7392 4.5752 0.2770 -3.3854 -9.3537 0.0000 0.0000 0.0000 13.9663 1.4737 -10.2631 -10.1436 -17.4898 59.9674 0.0894 -5.5606 -0.2230 -0.5637 -4.8088 13.3639 -5.0244 1.1078 12.2354 -1.1910 0.6975 1.0252 1.4621 0.4469 -5.8363 -13.7219 -7.4425 -15.7229 8.9017 -10.1739 33.3047 4.2535 -4.9746 15.6052 -0.0000 0.0000 0.0000 -85.6673 2.9635 16.5214 14.5368 -23.4970 -3.0389 -0.0000 -0.0000 9.3985 19.7114 24.8193 8.5526 -7.1250 0.0000 -0.0000 -10.6450 55.8256 -2.8506 -0.0000 0.0000 0.0000 87.7817 -2.6965 22.3065 -20.3446 31.0553 -5.7081 0.0000 0.0000 3.5800 -16.1200 9.7409 -2.7995 7.1250 -0.0000 -0.0000 7.7381 -19.8939 4.6857
0.00 0.00 0.00 5.9465 -21.3768 -3.5283 0.0000 0.0000 0.0000 -27.1882 -2.2483 -3.9563 0.8054 5.7277 15.9962 0.1284 -3.1901 -6.4143 0.0074 -0.5545 -1.5237 0.0000 0.0000 0.0000 13.6603 2.2036 -23.1632 -9.4767 -17.1049 57.7247 -0.2713 -2.9366 -11.3699 -0.0851 -1.8813 5.1777 -5.0605 0.3985 13.1210 -0.6462 -0.2640 1.2421 2.2251 -0.0164 -6.0346 -13.6225 -6.9283 -15.7337 8.8905 -9.4150 32.9596 4.3688 -4.6477 15.3080 -0.0000 0.0000 0.0000 -83.6217 -3.6691 19.6597 14.7827 -23.8425 -3.1376 -0.0000 -0.0000 8.6463 22.1474 24.4977 9.5798 -7.1250 0.0000 -0.0000 -7.9494 55.9995 -2.1547 -0.0000 0.0000 0.0000 87.3604 -2.1629 21.6396 -20.9652 31.7877 -6.0316 0.0000 0.0000 3.0179 -16.0396 9.5224 -2.7230 7.1250 -0.0000 -0.0000 7.7989 -20.1233 4.6828
0.00 0.00 0.00 6.3544 -27.7330 -2.3589 0.0000 0.0000 0.0000 -24.9717 2.6670 4.9683 2.7114 10.2126 29.6679 0.1616 -1.4180 8.2512 1.5548 -7.8697 -22.3191 0.0000 0.0000 0.0000 20.0303 2.5134 -19.9029 -1.5606 -7.8836 22.3610 -0.0138 -1.8783 -3.6660 -0.5655 -4.8162 13.3851 -3.7019 -0.4328 10.1710 0.4293 -0.9777 1.2177 2.6679 -0.4225 -4.3648 -13.5888 -6.7017 -16.4679 8.6298 -8.9887 33.1825 4.3229 -4.4999 15.4963 0.0000 0.0000 0.0000 -86.8724 -0.7058 23.9617 18.2941 -28.5321 -4.6889 -0.0000 -0.0000 7.6537 16.8740 25.5288 7.4477 -7.1250 0.0000 -0.0000 -13.9293 55.9565 -3.7966 0.0000 0.0000 0.0000 88.8394 -6.9491 10.8673 -13.7788 22.4176 -2.7432 0.0000 0.0000 9.0092 -13.6304 9.1648 -2.2118 7.1250 -0.0000 -0.0000 9.5278 -20.6118 5.6411
0.00 0.00 0.00 3.3764 -31.3625 -1.9601 0.0000 0.0000 0.0000 -20.1542 2.2716 -3.0681 5.9912 14.4198 44.9465 0.5516 -8.4972 19.6118 0.6867 -5.2980 -14.7605 0.0000 0.0000 0.0000 24.2181 1.5575 -14.8260 -1.4429 -7.5938 21.4869 -0.1050 1.4907 -5.7816 -0.7357 -5.4798 15.2824 -1.1290 -0.1083 10.7331 1.1234 -0.2367 1.4056 1.8427 -0.0962 -4.5423 -13.6001 -6.7427 -16.3282 8.8005 -9.1362 32.9586 4.3623 -4.5496 15.3902 0.0000 0.0000 0.0000 -86.7970 2.2402 24.6070 16.8913 -26.7143 -4.0384 -0.0000 -0.0000 8.6560 16.9182 24.2925 7.1326 -7.1250 0.0000 -0.0000 -13.2665 54.7439 -3.2176 0.0000 0.0000 0.0000 87.9424 -7.2296 16.0903 -15.9959 25.5151 -3.6442 0.0000 0.0000 6.4217 -13.4119 9.6773 -2.2954 7.1250 -0.0000 -0.0000 9.6653 -20.1036 5.8370
0.00 0.00 0.00 1.9389 -37.4066 -2.5502 0.0000 0.0000 0.0000 -16.8416 -2.4105 -13.1521 8.6688 16.5898 54.9375 -0.0367 -4.1306 4.0082 0.4610 -4.3552 -12.0782 0.0000 0.0000 0.0000 26.7608 2.0939 -6.9834 -1.4176 -7.5300 21.2953 -0.2825 4.4241 -9.4920 -0.7522 -5.5393 15.4535 -0.3237 0.3847 11.1507 1.2722 0.5127 1.5354 1.4342 0.2584 -4.6626 -13.4030 -6.7614 -15.5073 8.4466 -9.3848 33.7715 4.1639 -4.7391 15.5909 0.0000 0.0000 0.0000 -87.8355 4.9748 19.4426 14.3697 -23.2607 -2.9725 -0.0000 -0.0000 11.7781 16.9647 24.6693 7.2561 -7.1250 0.0000 -0.0000 -13.4018 55.1261 -3.3769 0.0000 0.0000 0.0000 87.1878 -3.3377 17.2191 -17.9990 28.1559 -4.5488 0.0000 0.0000 4.5801 -15.5381 7.9776 -2.2099 7.1250 -0.0000 -0.0000 8.1964 -21.7348 4.6249
0.00 0.00 0.00 -359.0010 -45.9254 355.7750 0.0000 0.0000 0.0000 -21.0372 -21.7894 -3.6559 1.9309 8.7207 24.9255 -3.3733 -30.4866 10.5811 2.2387 9.3466 26.8856 0.0000 0.0000 0.0000 10.9853 19.2580 -7.4221 -2.5177 -9.8700 28.5568 1.7407 26.5318 -5.0939 -0.0275 1.0711 -2.9445 -1.0522 -0.7028 11.9734 0.8849 -1.0429 0.9610 1.6969 -0.4859 -5.6729 -10.5361 -2.3803 -18.8294 2.3215 -1.1590 37.5880 2.6024 -1.8946 16.9599 0.0000 0.0000 0.0000 -84.7962 -0.3469 34.3478 35.6900 -45.2986 -15.3017 -0.0000 0.0000 -1.1317 21.5516 22.8243 8.7102 -7.1250 0.0000 -0.0000 -7.9076 54.1531 -1.7874 0.0000 0.0000 0.0000 86.9151 -7.8540 18.6321 -21.1471 31.9997 -6.1277 0.0000 0.0000 1.7152 -16.7872 8.0856 -2.4297 7.1250 -0.0000 -0.0000 7.2895 -21.5657 4.1327
0.00 0.00 0.00 -357.9050 32.9879 365.2110 0.0000 0.0000 0.0000 -18.2499 2.2023 -22.6767 2.0442 8.9576 25.6627 -0.1489 10.4285 -12.2047 0.1143 2.1802 6.0039 0.0000 0.0000 0.0000 20.2339 -7.7512 -8.9777 -1.1962 -6.9397 19.5367 0.3462 -19.1041 -24.0350 -0.0081 -0.5802 1.5943 2.2543 2.0706 11.1253 1.1512 3.1082 0.8123 -0.5457 1.4952 -5.3307 -9.3544 -0.6006 -20.2501 0.3161 3.5329 38.9764 2.5873 0.2475 17.7747 0.0000 0.0000 0.0000 -80.4047 4.1055 9.8961 21.2458 -32.1142 -6.1801 -0.0000 -0.0000 2.6639 23.1018 25.2050 10.2960 -7.1250 0.0000 -0.0000 -7.2305 56.9327 -2.1219 0.0000 0.0000 0.0000 82.3095 -6.0533 18.9428 -16.9895 26.8440 -4.0826 0.0000 0.0000 5.5456 -16.8323 7.0525 -2.1273 7.1250 -0.0000 -0.0000 7.2821 -22.6323 3.9501
